<svg xmlns="http://www.w3.org/2000/svg" width="64" height="64" viewBox="0 0 64 64" fill="none">
  <rect width="64" height="64" rx="12" fill="#3B82F6"/>
  <path d="M32.9062 44.5C32.3021 44.5 31.7396 44.3125 31.2188 43.9375C30.6979 43.5625 30.3125 43.0625 30.0625 42.4375L20.9688 22.5C20.8854 22.3333 20.8438 22.1458 20.8438 21.9375C20.8438 21.5208 20.9896 21.1667 21.2812 20.875C21.5729 20.5833 21.9271 20.4375 22.3438 20.4375C22.6771 20.4375 22.9688 20.5208 23.2188 20.6875C23.4688 20.8542 23.6562 21.0833 23.7812 21.375L32.8438 41.25L41.9062 21.375C42.0312 21.0833 42.2188 20.8542 42.4688 20.6875C42.7188 20.5208 43.0104 20.4375 43.3438 20.4375C43.7604 20.4375 44.1146 20.5833 44.4062 20.875C44.6979 21.1667 44.8438 21.5208 44.8438 21.9375C44.8438 22.1458 44.8021 22.3333 44.7188 22.5L35.625 42.4375C35.375 43.0625 34.9896 43.5625 34.4688 43.9375C33.9479 44.3125 33.3854 44.5 32.7812 44.5H32.9062Z" fill="white"/>
</svg>